<svg width="200" height="200" viewBox="0 0 200 200" fill="none" xmlns="http://www.w3.org/2000/svg">
<path d="M97.2222 194.444C96.6733 194.444 96.1366 194.282 95.6801 193.977C95.2236 193.672 94.8676 193.238 94.6572 192.731C94.4468 192.224 94.3913 191.666 94.4978 191.128C94.6043 190.589 94.868 190.094 95.2556 189.706L105.556 179.406V163.889C105.556 163.152 105.848 162.446 106.369 161.925C106.89 161.404 107.597 161.111 108.333 161.111C109.07 161.111 109.777 161.404 110.298 161.925C110.818 162.446 111.111 163.152 111.111 163.889V181.706L99.1889 193.628C98.9309 193.887 98.6244 194.092 98.2869 194.232C97.9495 194.372 97.5876 194.444 97.2222 194.444Z" fill="#787878"/>
<path d="M108.333 183.333H91.6667C90.93 183.333 90.2234 183.041 89.7025 182.52C89.1815 181.999 88.8889 181.292 88.8889 180.556C88.8889 179.819 89.1815 179.112 89.7025 178.591C90.2234 178.07 90.93 177.778 91.6667 177.778H108.333C109.07 177.778 109.777 178.07 110.298 178.591C110.818 179.112 111.111 179.819 111.111 180.556C111.111 181.292 110.818 181.999 110.298 182.52C109.777 183.041 109.07 183.333 108.333 183.333ZM125 194.444C124.451 194.444 123.914 194.282 123.458 193.977C123.001 193.672 122.645 193.238 122.435 192.731C122.225 192.224 122.169 191.666 122.276 191.128C122.382 190.589 122.646 190.094 123.033 189.706L133.333 179.406V163.889C133.333 163.152 133.626 162.446 134.147 161.925C134.668 161.404 135.374 161.111 136.111 161.111C136.848 161.111 137.554 161.404 138.075 161.925C138.596 162.446 138.889 163.152 138.889 163.889V181.706L126.967 193.628C126.709 193.887 126.402 194.092 126.065 194.232C125.727 194.372 125.365 194.444 125 194.444Z" fill="#787878"/>
<path d="M136.111 183.333H119.444C118.708 183.333 118.001 183.041 117.48 182.52C116.959 181.999 116.667 181.292 116.667 180.556C116.667 179.819 116.959 179.112 117.48 178.591C118.001 178.07 118.708 177.778 119.444 177.778H136.111C136.848 177.778 137.554 178.07 138.075 178.591C138.596 179.112 138.889 179.819 138.889 180.556C138.889 181.292 138.596 181.999 138.075 182.52C137.554 183.041 136.848 183.333 136.111 183.333Z" fill="#787878"/>
<path d="M19.6111 76.6556C24.3055 79.1667 40.7944 68.8167 43.8333 58.2778C46.8722 47.7389 38.1611 46.5222 27.8222 51.3889C17.4833 56.2556 15.5555 74.4833 19.6111 76.6556Z" fill="#D8E9A8"/>
<path d="M35.1389 22.2222C20.9444 27.7778 11.3722 40.9889 11.2833 56.0444C11.1944 71.0389 18.0555 80.6167 25.6944 78.5278C27.7833 77.9556 24.0111 67.85 30.4167 54.2444C33.5833 47.5389 37.6555 46.7444 39.7222 46.95C41.7944 47.15 42.1833 19.4667 35.1389 22.2222Z" fill="#146356"/>
<path d="M191.806 174.356C191.728 177.128 181.161 178.922 160.739 154.361C144.478 171.528 119.772 172.039 95.0667 162.261C67.2945 151.267 48.4945 123.794 52.2833 84.6167C54.4056 62.65 23.2389 64.6889 24.0556 35.1778C24.6722 12.9833 43.5722 4.42778 59.4667 4.86667C85.8 5.59445 97.3556 34.2722 104.2 41.3167C140.278 78.4722 192.033 166.15 191.806 174.356Z" fill="#00C897"/>
<path d="M160.733 154.361C144.472 171.528 119.767 172.039 95.0611 162.261C67.2889 151.267 48.4889 123.794 52.2778 84.6167C52.4778 108.744 60.9389 126.739 68.6111 131.372C65.3889 115.872 69.2611 92.1389 72.9667 88.1556C81.8056 140.389 128.644 170.267 160.733 154.361Z" fill="#D8E9A8"/>
<path d="M72.9722 88.15C72.9722 88.15 82.6222 120.306 113.694 140.3C144.767 160.294 160.739 154.356 160.739 154.356C160.739 154.356 144.411 173.039 118.256 165.933C92.1 158.828 66.4722 132.617 72.9722 88.15Z" fill="#019267"/>
<path d="M94.1 52.3167C80.1889 49.05 57.0667 91.8889 88.4944 126.717C129.806 172.5 160.739 154.361 160.739 154.361C160.739 154.361 137.694 62.55 94.1 52.3167Z" fill="#146356"/>
<path d="M44.4444 38.8889C47.5127 38.8889 50 36.4016 50 33.3333C50 30.2651 47.5127 27.7778 44.4444 27.7778C41.3762 27.7778 38.8889 30.2651 38.8889 33.3333C38.8889 36.4016 41.3762 38.8889 44.4444 38.8889Z" fill="white"/>
<path d="M59.5778 73.6611C55.1889 73.6611 51.1945 72.6111 48.6 71.1611C47.9849 70.7669 47.5436 70.1526 47.3661 69.4439C47.1887 68.7352 47.2885 67.9855 47.6452 67.3479C48.002 66.7103 48.5887 66.233 49.2855 66.0135C49.9823 65.7939 50.7367 65.8487 51.3945 66.1667C55.0889 68.2389 64.7611 69.6667 71.4722 63.8167C72.0439 63.3187 72.79 63.0681 73.5464 63.1202C74.3028 63.1723 75.0075 63.5228 75.5056 64.0944C76.0036 64.6661 76.2541 65.4122 76.202 66.1686C76.1499 66.925 75.7995 67.6298 75.2278 68.1278C70.5833 72.1778 64.8 73.6611 59.5778 73.6611Z" fill="#146356"/>
</svg>
